# xmcd
# 
# Track frame offsets:
#     183
#     22858
#     35608
#     50358
#     60558
#     80000
#     92598
#     128948
#     144845
#     158245
#     186198
#     204748
#     216280
#     229538
#     241623
#     263525
# 
# Disc length: 3812
# 
# Revision: 11
# Processed by: cddbd v1.5.2PL0 Copyright (c) Steve Scherf et al.
# Submitted via: BonkEnc v1.0.6
# 
DISCID=ce0ee210
DTITLE=Various Artist - Blues Collection Vol. 1
DYEAR=1990
DGENRE=Blues
TTITLE0=Eric Clapton - The First Time I Met The Blues
TTITLE1=John Lee Hooker - Hobo Blues
TTITLE2=Sonny Terry and Brownie McGhee - Gonna Lay My Body Down
TTITLE3=Muddy Waters - Mean Red Spider
TTITLE4=Jeff Beck - New York City Blues
TTITLE5=Howlin Wolf - My Mind Is Ramblin
TTITLE6=Big Joe Turner - Roll Me Baby
TTITLE7=Eric Clapton - Louise
TTITLE8=Lovin' Spoonful - Night Owl Blues
TTITLE9=B. B. King - Playin' The Cost To The Boss
TTITLE10=Memphis Slim - Gamblers Blues
TTITLE11=Muddy Waters - Goin' Home
TTITLE12=Nina Simone - Backlash Blues
TTITLE13=John Lee Hooker - Crawling King Snake
TTITLE14=B. B. King - The Trill Is Gone
TTITLE15=Eric Clapton - Five Long Years
EXTD=YEAR: 1990
EXTT0=
EXTT1=
EXTT2=
EXTT3=
EXTT4=
EXTT5=
EXTT6=
EXTT7=
EXTT8=
EXTT9=
EXTT10=
EXTT11=
EXTT12=
EXTT13=
EXTT14=
EXTT15=
PLAYORDER=
